<svg viewBox="0 0 500 355" version="1.1" xmlns="http://www.w3.org/2000/svg" xmlns:xlink="http://www.w3.org/1999/xlink" overflow="visible" id="b1xv9l9e">
   <desc>Engraved by Verovio 6.3.0-425dd7b</desc>
   <defs>
      <g id="E062-b1xv9l9e">
         <path transform="scale(1,-1)" d="M582 -120c0 32 26 58 58 58s58 -26 58 -58s-26 -58 -58 -58s-58 26 -58 58zM582 120c0 32 26 58 58 58s58 -26 58 -58s-26 -58 -58 -58s-58 26 -58 58zM158 96c51 0 73 -14 88 -49l16 -39c0 -17 -2 -30 -7 -40c-3 -11 -10 -21 -19 -31c-17 -18 -49 -43 -84 -43 c-55 0 -77 13 -112 44c-24 21 -35 55 -35 100c0 46 14 81 32 112c30 52 71 79 137 93l36 6l26 2c154 0 235 -68 274 -182c11 -32 18 -68 18 -107c0 -103 -26 -182 -68 -250c-89 -145 -234 -230 -412 -288l-30 -5c-9 0 -14 3 -14 8c3 10 5 11 10 16c35 15 70 30 96 44l78 43 c96 57 162 136 197 258c9 33 17 60 22 100c3 22 5 35 6 39c-7 69 -16 115 -23 140s-4 22 -16 40c-8 12 -19 23 -31 34c-24 21 -62 44 -118 44c-48 0 -84 -8 -113 -28c-28 -19 -42 -44 -42 -73v-16c2 -5 3 -9 4 -11c24 22 52 39 84 39z" />
      </g>
      <g id="E084-b1xv9l9e">
         <path transform="scale(1,-1)" d="M20 -78c84 97 114 180 134 329h170c-13 -32 -82 -132 -99 -151l-84 -97c-33 -36 -59 -63 -80 -81h162v102l127 123v-225h57v-39h-57v-34c0 -43 19 -65 57 -65v-34h-244v36c48 0 60 26 60 70v27h-203v39z" />
      </g>
      <g id="E4E5-b1xv9l9e">
         <path transform="scale(1,-1)" d="M107 292c-13 24 -30 49 -52 71c-1 1 0 2 0 3l-2 2c3 3 4 4 6 4c12 0 26 -7 40 -20s44 -40 89 -81c26 -24 28 -29 46 -47c4 -4 8 -9 10 -14c6 -8 8 -16 8 -27c0 -19 -12 -40 -36 -61c-28 -23 -49 -38 -61 -73c-4 -11 -7 -27 -10 -50c13 -43 34 -83 59 -121 c31 -47 59 -79 101 -129c-8 0 -26 7 -54 20l-62 29l-21 6l-23 1c-25 0 -45 -10 -60 -30l-4 -14l-1 -12c0 -33 20 -56 39 -78c8 -9 17 -18 26 -26c17 -15 27 -24 28 -30l-3 -3c-11 5 -19 10 -25 15c-9 3 -37 21 -45 26c-24 14 -45 32 -63 51c-19 21 -37 44 -37 71 c0 63 27 95 80 95c41 0 86 -18 136 -52c-19 26 -37 48 -55 66c-23 23 -48 44 -73 65c-28 23 -47 40 -58 53s-17 26 -18 39c75 64 113 125 113 183c0 27 -7 48 -18 68z" />
      </g>
      <g id="E4E6-b1xv9l9e">
         <path transform="scale(1,-1)" d="M0 123c7 34 33 56 69 60c29 -3 43 -9 53 -29c4 -8 7 -15 10 -22c0 -21 -1 -25 -11 -35c-5 -8 -18 -14 -40 -20l12 -3l15 -1c44 0 97 26 122 56c10 11 18 26 24 42c7 1 15 2 22 3l-140 -424h-36l111 330c-10 -6 -27 -12 -53 -16l-52 -8h-10l-20 1c-1 0 -8 3 -21 6 c-37 9 -55 28 -55 60z" />
      </g>
      <g id="E0A4-b1xv9l9e">
         <path transform="scale(1,-1)" d="M0 -39c0 68 73 172 200 172c66 0 114 -37 114 -95c0 -84 -106 -171 -218 -171c-64 0 -96 30 -96 94z" />
      </g>
      <g id="E612-b1xv9l9e">
         <path transform="scale(1,-1)" d="M283 338l-141 -338l-142 338h38l104 -248l104 248h37z" />
      </g>
      <g id="E082-b1xv9l9e">
         <path transform="scale(1,-1)" d="M124 -185c-18 0 -55 -14 -65 -65h-36l-3 30c0 25 6 45 18 63c11 19 22 30 39 43l121 82l37 29c15 11 27 29 38 54c12 24 18 47 18 70c0 40 -19 88 -94 88c-25 0 -32 0 -50 -8c-14 -5 -23 -12 -26 -22c3 -9 7 -15 10 -18l24 -17c12 -7 17 -11 27 -21c5 -7 7 -16 7 -27 c0 -12 0 -57 -79 -74c-30 0 -76 26 -76 94c0 66 81 135 197 135c72 0 181 -32 181 -150c0 -53 -32 -95 -113 -133l-91 -41c-26 -11 -45 -23 -57 -37l49 7c84 0 115 -41 148 -41c20 0 33 20 39 61h35c0 -152 -68 -168 -114 -168c-17 0 -65 0 -79 7h10l-28 17 c-49 37 -69 40 -87 42z" />
      </g>
      <g id="E0A3-b1xv9l9e">
         <path transform="scale(1,-1)" d="M278 64c0 22 -17 39 -43 39c-12 0 -26 -3 -41 -10c-85 -43 -165 -94 -165 -156c5 -25 15 -32 49 -32c67 11 200 95 200 159zM0 -36c0 68 73 174 200 174c66 0 114 -39 114 -97c0 -84 -106 -173 -218 -173c-64 0 -96 32 -96 96z" />
      </g>
      <g id="E241-b1xv9l9e">
         <path transform="scale(1,-1)" d="M179 646c-4 8 -17 30 -18 33l-4 10c0 3 2 5 5 5s7 -2 13 -7c23 -33 46 -81 66 -132c22 -57 35 -125 35 -163c0 -104 -60 -183 -122 -241c-63 -59 -57 -53 -61 -56c-38 -34 -63 -95 -71 -95h-22v190c40 7 69 11 87 16c88 27 168 95 168 200c0 30 -12 89 -30 138 c-17 47 -31 73 -46 102z" />
      </g>
      <g id="E4E4-b1xv9l9e">
         <path transform="scale(1,-1)" d="M0 10v105c0 9 1 10 10 10h280c9 0 10 -1 10 -10v-105c0 -9 -1 -10 -10 -10h-280c-9 0 -10 1 -10 10z" />
      </g>
   </defs>
   <style type="text/css">#b1xv9l9e g.ending, #b1xv9l9e g.fing, #b1xv9l9e g.reh, #b1xv9l9e g.tempo {font-weight:bold;}#b1xv9l9e g.dir, #b1xv9l9e g.dynam, #b1xv9l9e g.mNum {font-style:italic;}#b1xv9l9e g.label {font-weight:normal;}#b1xv9l9e ellipse, #b1xv9l9e path, #b1xv9l9e polygon, #b1xv9l9e polyline, #b1xv9l9e rect {stroke:currentColor}#b1xv9l9e g.cursor {fill:dodgerblue; color:dodgerblue;}#b1xv9l9e g.cursor.chord {fill:limegreen; color:limegreen;}</style>
   <svg class="definition-scale" color="black" font-family="Times, serif" viewBox="0 0 10000 7100">
      <g class="page-margin" transform="translate(200, 200)">
         <g id="l1oq63c2" class="mdiv pageMilestone" />
         <g id="m4jpuvf" class="score pageMilestone" />
         <g id="kgwjpji" class="system">
            <g id="ov202v4" class="section systemMilestone" />
            <g id="p1ruvmxh" class="pb" />
            <g id="g199n8h5" class="section systemMilestone" />
            <g id="iq6kq17" class="measure">
               <g id="r1ymaqw7" class="staff">
                  <path d="M0 553 L5657 553" stroke-width="13" />
                  <path d="M0 733 L5657 733" stroke-width="13" />
                  <path d="M0 913 L5657 913" stroke-width="13" />
                  <path d="M0 1093 L5657 1093" stroke-width="13" />
                  <path d="M0 1273 L5657 1273" stroke-width="13" />
                  <g id="rqqmtj1" class="clef">
                     <use xlink:href="#E062-b1xv9l9e" transform="translate(88, 733) scale(0.72, 0.72)" />
                  </g>
                  <g id="syxhvoh" class="keySig" />
                  <g id="tjldmo3" class="meterSig">
                     <use xlink:href="#E084-b1xv9l9e" transform="translate(755, 733) scale(0.72, 0.72)" />
                     <use xlink:href="#E084-b1xv9l9e" transform="translate(755, 1093) scale(0.72, 0.72)" />
                  </g>
                  <g id="s1kcz98s" class="layer">
                     <g id="t1nkhaqu" class="rest">
                        <use xlink:href="#E4E5-b1xv9l9e" transform="translate(1324, 913) scale(0.72, 0.72)" />
                     </g>
                     <g id="uvsctcx" class="rest">
                        <use xlink:href="#E4E6-b1xv9l9e" transform="translate(2249, 913) scale(0.72, 0.72)" />
                     </g>
                     <g id="vubrj6v" class="beam">
                        <polygon points="2853,1138 3273,1138 3273,1048 2853,1048" />
                        <polygon points="2853,1003 3273,1003 3273,913 2853,913" />
                        <g id="w1mrzvbe" class="note">
                           <g class="notehead">
                              <use xlink:href="#E0A4-b1xv9l9e" transform="translate(2853, 553) scale(0.72, 0.72)" />
                           </g>
                           <g id="vbw60ws" class="stem">
                              <path d="M2862 581 L2862 1120" stroke-width="18" />
                           </g>
                           <g id="y4xi118" class="artic technical">
                              <use xlink:href="#E612-b1xv9l9e" transform="translate(2865, 396) scale(0.72, 0.72)" />
                           </g>
                        </g>
                        <g id="z1ynq11d" class="note">
                           <g class="notehead">
                              <use xlink:href="#E0A4-b1xv9l9e" transform="translate(3255, 553) scale(0.72, 0.72)" />
                           </g>
                           <g id="w3xexux" class="stem">
                              <path d="M3264 581 L3264 1120" stroke-width="18" />
                           </g>
                        </g>
                     </g>
                     <g id="a1vb3iar" class="note">
                        <g class="notehead">
                           <use xlink:href="#E0A4-b1xv9l9e" transform="translate(3658, 553) scale(0.72, 0.72)" />
                        </g>
                        <g id="y1pl6d90" class="dots">
                           <ellipse cx="3974" cy="463" rx="36" ry="36" />
                        </g>
                        <g id="xdwa93d" class="stem">
                           <path d="M3667 581 L3667 1183" stroke-width="18" />
                        </g>
                     </g>
                     <g id="c67jm3y" class="beam">
                        <polygon points="4839,1138 5259,1138 5259,1048 4839,1048" />
                        <polygon points="4839,1003 5259,1003 5259,913 4839,913" />
                        <g id="d1qvp0gy" class="note">
                           <g class="notehead">
                              <use xlink:href="#E0A4-b1xv9l9e" transform="translate(4839, 553) scale(0.72, 0.72)" />
                           </g>
                           <g id="zz0cmji" class="stem">
                              <path d="M4848 581 L4848 1120" stroke-width="18" />
                           </g>
                        </g>
                        <g id="f1an8rlc" class="note">
                           <g class="notehead">
                              <use xlink:href="#E0A4-b1xv9l9e" transform="translate(5241, 553) scale(0.72, 0.72)" />
                           </g>
                           <g id="ae5t2rx" class="stem">
                              <path d="M5250 581 L5250 1120" stroke-width="18" />
                           </g>
                        </g>
                     </g>
                  </g>
               </g>
               <g id="x1leqygm" class="slur">
                  <path d="M2966,41 C3194,-85 3682,104 3769,351 C3638,152 3195,-20 2966,41" stroke-width="9" stroke-linecap="round" stroke-linejoin="round" />
               </g>
               <g id="bm4sc2n" class="hairpin">
                  <polyline stroke-width="18" stroke-linecap="square" stroke-linejoin="miter" fill="none" points="5464,1549 4839,1462 5464,1375 " />
               </g>
               <g id="ed82u0h" class="slur">
                  <path d="M4952,351 C6243,-38 7548,-38 8840,351 C7539,21 6252,21 4952,351" stroke-width="9" stroke-linecap="round" stroke-linejoin="round" />
               </g>
               <g id="qnazlkc" class="barLine">
                  <path d="M5644 553 L5644 1273" stroke-width="27" />
               </g>
            </g>
            <g id="g1t5t0xe" class="measure">
               <g id="pqb9gm2" class="staff">
                  <path d="M5657 553 L9601 553" stroke-width="13" />
                  <path d="M5657 733 L9601 733" stroke-width="13" />
                  <path d="M5657 913 L9601 913" stroke-width="13" />
                  <path d="M5657 1093 L9601 1093" stroke-width="13" />
                  <path d="M5657 1273 L9601 1273" stroke-width="13" />
                  <g id="kjr1vmb" class="meterSig">
                     <use xlink:href="#E082-b1xv9l9e" transform="translate(5733, 733) scale(0.72, 0.72)" />
                     <use xlink:href="#E084-b1xv9l9e" transform="translate(5738, 1093) scale(0.72, 0.72)" />
                  </g>
                  <g id="s1exo51b" class="layer">
                     <g id="t106d3v6" class="beam">
                        <polygon points="6313,1138 7337,1138 7337,1048 6313,1048" />
                        <polygon points="6925,1003 7337,1003 7337,913 6925,913" />
                        <g id="uy1v0ej" class="note">
                           <g class="notehead">
                              <use xlink:href="#E0A4-b1xv9l9e" transform="translate(6313, 553) scale(0.72, 0.72)" />
                           </g>
                           <g id="b12umxq" class="stem">
                              <path d="M6322 581 L6322 1120" stroke-width="18" />
                           </g>
                        </g>
                        <g id="v1hne744" class="note">
                           <g class="notehead">
                              <use xlink:href="#E0A4-b1xv9l9e" transform="translate(6916, 553) scale(0.72, 0.72)" />
                           </g>
                           <g id="cmbc39l" class="stem">
                              <path d="M6925 581 L6925 1120" stroke-width="18" />
                           </g>
                        </g>
                        <g id="w1f2m4ax" class="note">
                           <g class="notehead">
                              <use xlink:href="#E0A4-b1xv9l9e" transform="translate(7319, 553) scale(0.72, 0.72)" />
                           </g>
                           <g id="dn63jf1" class="stem">
                              <path d="M7328 581 L7328 1120" stroke-width="18" />
                           </g>
                        </g>
                     </g>
                     <g id="yebgjcb" class="beam">
                        <polygon points="7721,1138 8745,1138 8745,1048 7721,1048" />
                        <polygon points="8334,1003 8745,1003 8745,913 8334,913" />
                        <g id="z1fxz239" class="note">
                           <g class="notehead">
                              <use xlink:href="#E0A4-b1xv9l9e" transform="translate(7721, 553) scale(0.72, 0.72)" />
                           </g>
                           <g id="e1cye7gq" class="stem">
                              <path d="M7730 581 L7730 1120" stroke-width="18" />
                           </g>
                        </g>
                        <g id="a19sl859" class="note">
                           <g class="notehead">
                              <use xlink:href="#E0A4-b1xv9l9e" transform="translate(8325, 553) scale(0.72, 0.72)" />
                           </g>
                           <g id="f1ui2w8e" class="stem">
                              <path d="M8334 581 L8334 1120" stroke-width="18" />
                           </g>
                        </g>
                        <g id="b1e263os" class="note">
                           <g class="notehead">
                              <use xlink:href="#E0A4-b1xv9l9e" transform="translate(8727, 553) scale(0.72, 0.72)" />
                           </g>
                           <g id="g130lwey" class="stem">
                              <path d="M8736 581 L8736 1120" stroke-width="18" />
                           </g>
                        </g>
                     </g>
                  </g>
                  <g id="as743ti" class="meterSig">
                     <use xlink:href="#E084-b1xv9l9e" transform="translate(9219, 733) scale(0.72, 0.72)" />
                     <use xlink:href="#E084-b1xv9l9e" transform="translate(9219, 1093) scale(0.72, 0.72)" />
                  </g>
               </g>
               <g id="xfkiwzn" class="hairpin">
                  <polyline stroke-width="18" stroke-linecap="square" stroke-linejoin="miter" points="7721,1597 8950,1507 " />
                  <polyline stroke-width="18" stroke-linecap="square" stroke-linejoin="miter" points="7721,1327 8950,1417 " />
               </g>
               <g id="o9a1qie" class="barLine">
                  <path d="M9130 553 L9130 1273" stroke-width="27" />
               </g>
            </g>
         </g>
         <g id="nun543p" class="system">
            <g id="c17zbpi9" class="measure">
               <g id="xbwkn9z" class="mNum autogenerated">
                  <text y="2154" text-anchor="middle" font-size="0px">
                     <tspan id="y1enyfrp" class="text">
                        <tspan font-size="324px">3</tspan>
                     </tspan>
                  </text>
               </g>
               <g id="lwdtzt2" class="staff">
                  <path d="M0 2397 L5481 2397" stroke-width="13" />
                  <path d="M0 2577 L5481 2577" stroke-width="13" />
                  <path d="M0 2757 L5481 2757" stroke-width="13" />
                  <path d="M0 2937 L5481 2937" stroke-width="13" />
                  <path d="M0 3117 L5481 3117" stroke-width="13" />
                  <g id="dy4brn6" class="clef">
                     <use xlink:href="#E062-b1xv9l9e" transform="translate(88, 2577) scale(0.72, 0.72)" />
                  </g>
                  <g id="ekb0l0y" class="keySig" />
                  <g id="f1sfigpv" class="meterSig">
                     <use xlink:href="#E084-b1xv9l9e" transform="translate(755, 2577) scale(0.72, 0.72)" />
                     <use xlink:href="#E084-b1xv9l9e" transform="translate(755, 2937) scale(0.72, 0.72)" />
                  </g>
                  <g id="o1o1x2uk" class="layer">
                     <g id="po4nykc" class="note">
                        <g class="notehead">
                           <use xlink:href="#E0A3-b1xv9l9e" transform="translate(1319, 2397) scale(0.72, 0.72)" />
                        </g>
                        <g id="h1d1t4ly" class="stem">
                           <path d="M1328 2422 L1328 3027" stroke-width="18" />
                        </g>
                     </g>
                     <g id="s1x41myg" class="beam">
                        <polygon points="2703,2982 3709,2982 3709,2892 2703,2892" />
                        <polygon points="3305,2847 3709,2847 3709,2757 3305,2757" />
                        <g id="ttzkxr4" class="note">
                           <g class="notehead">
                              <use xlink:href="#E0A4-b1xv9l9e" transform="translate(2703, 2397) scale(0.72, 0.72)" />
                           </g>
                           <g id="i1wvw5kl" class="stem">
                              <path d="M2712 2425 L2712 2964" stroke-width="18" />
                           </g>
                        </g>
                        <g id="u1g7dzlx" class="note">
                           <g class="notehead">
                              <use xlink:href="#E0A4-b1xv9l9e" transform="translate(3296, 2397) scale(0.72, 0.72)" />
                           </g>
                           <g id="j1hjfste" class="stem">
                              <path d="M3305 2425 L3305 2964" stroke-width="18" />
                           </g>
                        </g>
                        <g id="wweff3e" class="note">
                           <g class="notehead">
                              <use xlink:href="#E0A4-b1xv9l9e" transform="translate(3691, 2397) scale(0.72, 0.72)" />
                           </g>
                           <g id="k1dvrnf8" class="stem">
                              <path d="M3700 2425 L3700 2964" stroke-width="18" />
                           </g>
                        </g>
                     </g>
                     <g id="yme8qiu" class="beam">
                        <polygon points="4085,2982 5091,2982 5091,2892 4085,2892" />
                        <polygon points="4687,2847 5091,2847 5091,2757 4687,2757" />
                        <g id="zjfsukj" class="note">
                           <g class="notehead">
                              <use xlink:href="#E0A4-b1xv9l9e" transform="translate(4085, 2397) scale(0.72, 0.72)" />
                           </g>
                           <g id="l1mohzda" class="stem">
                              <path d="M4094 2425 L4094 2964" stroke-width="18" />
                           </g>
                        </g>
                        <g id="a1qoto9t" class="note">
                           <g class="notehead">
                              <use xlink:href="#E0A4-b1xv9l9e" transform="translate(4678, 2397) scale(0.72, 0.72)" />
                           </g>
                           <g id="m1nwksm2" class="stem">
                              <path d="M4687 2425 L4687 2964" stroke-width="18" />
                           </g>
                        </g>
                        <g id="bvu81xf" class="note">
                           <g class="notehead">
                              <use xlink:href="#E0A4-b1xv9l9e" transform="translate(5073, 2397) scale(0.72, 0.72)" />
                           </g>
                           <g id="n16o7jtt" class="stem">
                              <path d="M5082 2425 L5082 2964" stroke-width="18" />
                           </g>
                        </g>
                     </g>
                  </g>
               </g>
               <g id="q1uc4sw9" class="slur">
                  <path d="M1432,2195 C1762,1896 2485,1896 2816,2195 C2464,1956 1783,1956 1432,2195" stroke-width="9" stroke-linecap="round" stroke-linejoin="round" />
               </g>
               <g id="rt3nzh3" class="hairpin">
                  <polyline stroke-width="18" stroke-linecap="square" stroke-linejoin="miter" fill="none" points="4085,3441 2703,3306 4085,3171 " />
               </g>
               <g id="v192s6bp" class="slur">
                  <path d="M3409,2195 C3881,1889 4713,1889 5186,2195 C4698,1947 3896,1947 3409,2195" stroke-width="9" stroke-linecap="round" stroke-linejoin="round" />
               </g>
               <g id="x10chbag" class="hairpin">
                  <polyline stroke-width="18" stroke-linecap="square" stroke-linejoin="miter" fill="none" points="4139,3441 5288,3306 4139,3171 " />
               </g>
               <g id="k1hwqtjz" class="barLine">
                  <path d="M5468 2397 L5468 3117" stroke-width="27" />
               </g>
            </g>
            <g id="ciaa1yq" class="measure">
               <g id="l1x83pq1" class="staff">
                  <path d="M5481 2397 L9601 2397" stroke-width="13" />
                  <path d="M5481 2577 L9601 2577" stroke-width="13" />
                  <path d="M5481 2757 L9601 2757" stroke-width="13" />
                  <path d="M5481 2937 L9601 2937" stroke-width="13" />
                  <path d="M5481 3117 L9601 3117" stroke-width="13" />
                  <g id="ms8k0e3" class="layer">
                     <g id="nbv4nvl" class="note">
                        <g class="notehead">
                           <use xlink:href="#E0A3-b1xv9l9e" transform="translate(5663, 2397) scale(0.72, 0.72)" />
                        </g>
                        <g id="o1bv68tq" class="stem">
                           <path d="M5672 2422 L5672 3027" stroke-width="18" />
                        </g>
                     </g>
                     <g id="p18r0qb6" class="beam">
                        <polygon points="7047,2982 8053,2982 8053,2892 7047,2892" />
                        <polygon points="7649,2847 8053,2847 8053,2757 7649,2757" />
                        <g id="qn5mj0p" class="note">
                           <g class="notehead">
                              <use xlink:href="#E0A4-b1xv9l9e" transform="translate(7047, 2397) scale(0.72, 0.72)" />
                           </g>
                           <g id="p3yycln" class="stem">
                              <path d="M7056 2425 L7056 2964" stroke-width="18" />
                           </g>
                        </g>
                        <g id="rkh13zg" class="note">
                           <g class="notehead">
                              <use xlink:href="#E0A4-b1xv9l9e" transform="translate(7640, 2397) scale(0.72, 0.72)" />
                           </g>
                           <g id="qtyj67f" class="stem">
                              <path d="M7649 2425 L7649 2964" stroke-width="18" />
                           </g>
                        </g>
                        <g id="t1x1182j" class="note">
                           <g class="notehead">
                              <use xlink:href="#E0A4-b1xv9l9e" transform="translate(8035, 2397) scale(0.72, 0.72)" />
                           </g>
                           <g id="r3fs5xj" class="stem">
                              <path d="M8044 2425 L8044 2964" stroke-width="18" />
                           </g>
                        </g>
                     </g>
                     <g id="vlgpfdp" class="beam">
                        <polygon points="8429,2982 9212,2982 9212,2892 8429,2892" />
                        <polygon points="8986,2847 9212,2847 9212,2757 8986,2757" />
                        <g id="w1a3ws0t" class="note">
                           <g class="notehead">
                              <use xlink:href="#E0A4-b1xv9l9e" transform="translate(8429, 2397) scale(0.72, 0.72)" />
                           </g>
                           <g id="t7zyuea" class="dots">
                              <ellipse cx="8745" cy="2307" rx="36" ry="36" />
                           </g>
                           <g id="s6vog5j" class="stem">
                              <path d="M8438 2425 L8438 2964" stroke-width="18" />
                           </g>
                        </g>
                        <g id="x13u6ket" class="note">
                           <g class="notehead">
                              <use xlink:href="#E0A4-b1xv9l9e" transform="translate(9194, 2397) scale(0.72, 0.72)" />
                           </g>
                           <g id="u1pf6pfz" class="stem">
                              <path d="M9203 2425 L9203 2964" stroke-width="18" />
                           </g>
                        </g>
                     </g>
                  </g>
               </g>
               <g id="oikp4s5" class="slur">
                  <path d="M5776,2195 C6106,1896 6829,1896 7160,2195 C6808,1956 6127,1956 5776,2195" stroke-width="9" stroke-linecap="round" stroke-linejoin="round" />
               </g>
               <g id="sg1g70t" class="slur">
                  <path d="M7753,2195 C8142,1896 8917,1896 9307,2195 C8898,1956 8161,1956 7753,2195" stroke-width="9" stroke-linecap="round" stroke-linejoin="round" />
               </g>
               <g id="u126iamk" class="hairpin">
                  <polyline stroke-width="18" stroke-linecap="square" stroke-linejoin="miter" fill="none" points="9408,3441 8429,3306 9408,3171 " />
               </g>
               <g id="k1plxekq" class="barLine">
                  <path d="M9588 2397 L9588 3117" stroke-width="27" />
               </g>
            </g>
            <g id="itbbn3q" class="sb" />
            <g class="hairpin id-xfkiwzn spanning">
               <polyline stroke-width="18" stroke-linecap="square" stroke-linejoin="miter" fill="none" points="1137,3396 1664,3306 1137,3216 " />
            </g>
         </g>
         <g id="q1nm07f8" class="system">
            <g id="y146qnfc" class="measure">
               <g id="b9ae854" class="mNum autogenerated">
                  <text y="3968" text-anchor="middle" font-size="0px">
                     <tspan id="c7dofzw" class="text">
                        <tspan font-size="324px">5</tspan>
                     </tspan>
                  </text>
               </g>
               <g id="hm5zxpw" class="staff">
                  <path d="M0 4211 L5770 4211" stroke-width="13" />
                  <path d="M0 4391 L5770 4391" stroke-width="13" />
                  <path d="M0 4571 L5770 4571" stroke-width="13" />
                  <path d="M0 4751 L5770 4751" stroke-width="13" />
                  <path d="M0 4931 L5770 4931" stroke-width="13" />
                  <g id="i10xob6x" class="clef">
                     <use xlink:href="#E062-b1xv9l9e" transform="translate(88, 4391) scale(0.72, 0.72)" />
                  </g>
                  <g id="jxydtc6" class="keySig" />
                  <g id="k156h86" class="layer">
                     <g id="ldz6v08" class="beam">
                        <polygon points="861,4796 1657,4796 1657,4706 861,4706" />
                        <polygon points="1431,4661 1657,4661 1657,4571 1431,4571" />
                        <g id="m13k2ucv" class="note">
                           <g class="notehead">
                              <use xlink:href="#E0A4-b1xv9l9e" transform="translate(861, 4211) scale(0.72, 0.72)" />
                           </g>
                           <g id="w50elch" class="dots">
                              <ellipse cx="1177" cy="4121" rx="36" ry="36" />
                           </g>
                           <g id="vpzz18i" class="stem">
                              <path d="M870 4239 L870 4778" stroke-width="18" />
                           </g>
                        </g>
                        <g id="ojq14ol" class="note">
                           <g class="notehead">
                              <use xlink:href="#E0A4-b1xv9l9e" transform="translate(1639, 4211) scale(0.72, 0.72)" />
                           </g>
                           <g id="xrqhhr9" class="stem">
                              <path d="M1648 4239 L1648 4778" stroke-width="18" />
                           </g>
                        </g>
                     </g>
                     <g id="psihp2x" class="note">
                        <g class="notehead">
                           <use xlink:href="#E0A4-b1xv9l9e" transform="translate(2042, 4211) scale(0.72, 0.72)" />
                        </g>
                        <g id="y1a9i3xe" class="stem">
                           <path d="M2051 4239 L2051 4841" stroke-width="18" />
                        </g>
                     </g>
                     <g id="r2zm2ub" class="beam">
                        <polygon points="2967,4796 4192,4796 4192,4706 2967,4706" />
                        <polygon points="2967,4661 3379,4661 3379,4571 2967,4571" />
                        <polygon points="3379,4661 3781,4661 3781,4571 3379,4571" />
                        <polygon points="3781,4661 4192,4661 4192,4571 3781,4571" />
                        <g id="s1vfub24" class="note">
                           <g class="notehead">
                              <use xlink:href="#E0A4-b1xv9l9e" transform="translate(2967, 4211) scale(0.72, 0.72)" />
                           </g>
                           <g id="z12z5uh7" class="stem">
                              <path d="M2976 4239 L2976 4778" stroke-width="18" />
                           </g>
                        </g>
                        <g id="uwxnpw8" class="note">
                           <g class="notehead">
                              <use xlink:href="#E0A4-b1xv9l9e" transform="translate(3370, 4211) scale(0.72, 0.72)" />
                           </g>
                           <g id="asm7kxy" class="stem">
                              <path d="M3379 4239 L3379 4778" stroke-width="18" />
                           </g>
                        </g>
                        <g id="ws2eaji" class="note">
                           <g class="notehead">
                              <use xlink:href="#E0A4-b1xv9l9e" transform="translate(3772, 4211) scale(0.72, 0.72)" />
                           </g>
                           <g id="b1ghif9j" class="stem">
                              <path d="M3781 4239 L3781 4778" stroke-width="18" />
                           </g>
                        </g>
                        <g id="x9u5od9" class="note">
                           <g class="notehead">
                              <use xlink:href="#E0A4-b1xv9l9e" transform="translate(4174, 4211) scale(0.72, 0.72)" />
                           </g>
                           <g id="cp8z3ui" class="stem">
                              <path d="M4183 4239 L4183 4778" stroke-width="18" />
                           </g>
                        </g>
                     </g>
                     <g id="z3z2f6m" class="beam">
                        <polygon points="4576,4796 5373,4796 5373,4706 4576,4706" />
                        <polygon points="5147,4661 5373,4661 5373,4571 5147,4571" />
                        <g id="apqrzjn" class="note">
                           <g class="notehead">
                              <use xlink:href="#E0A4-b1xv9l9e" transform="translate(4576, 4211) scale(0.72, 0.72)" />
                           </g>
                           <g id="edarild" class="dots">
                              <ellipse cx="4892" cy="4121" rx="36" ry="36" />
                           </g>
                           <g id="d1xt42ow" class="stem">
                              <path d="M4585 4239 L4585 4778" stroke-width="18" />
                           </g>
                        </g>
                        <g id="c1io6de6" class="note">
                           <g class="notehead">
                              <use xlink:href="#E0A4-b1xv9l9e" transform="translate(5355, 4211) scale(0.72, 0.72)" />
                           </g>
                           <g id="f1xkm76w" class="stem">
                              <path d="M5364 4239 L5364 4778" stroke-width="18" />
                           </g>
                        </g>
                     </g>
                  </g>
               </g>
               <g id="j1yzxbu" class="hairpin">
                  <polyline stroke-width="18" stroke-linecap="square" stroke-linejoin="miter" fill="none" points="861,5255 2967,5120 861,4985 " />
               </g>
               <g id="n12ylbdx" class="slur">
                  <path d="M974,4009 C1121,3826 1604,3826 1752,4009 C1580,3884 1145,3884 974,4009" stroke-width="9" stroke-linecap="round" stroke-linejoin="round" />
               </g>
               <g id="q1vq4ugb" class="slur">
                  <path d="M2155,4009 C2342,3796 2892,3796 3080,4009 C2869,3854 2365,3854 2155,4009" stroke-width="9" stroke-linecap="round" stroke-linejoin="round" />
               </g>
               <g id="t1ljydea" class="hairpin">
                  <polyline stroke-width="18" stroke-linecap="square" stroke-linejoin="miter" fill="none" points="4576,5255 3370,5120 4576,4985 " />
               </g>
               <g id="v13n29lk" class="slur">
                  <path d="M3483,4009 C3637,3821 4132,3821 4287,4009 C4109,3879 3660,3879 3483,4009" stroke-width="9" stroke-linecap="round" stroke-linejoin="round" />
               </g>
               <g id="y1w4rc1v" class="hairpin">
                  <polyline stroke-width="18" stroke-linecap="square" stroke-linejoin="miter" fill="none" points="4630,5255 5577,5120 4630,4985 " />
               </g>
               <g id="b1irf2lb" class="slur">
                  <path d="M4689,4009 C4836,3826 5320,3826 5468,4009 C5296,3884 4860,3884 4689,4009" stroke-width="9" stroke-linecap="round" stroke-linejoin="round" />
               </g>
               <g id="gab5vtj" class="barLine">
                  <path d="M5757 4211 L5757 4931" stroke-width="27" />
               </g>
            </g>
            <g id="d1thliez" class="measure">
               <g id="m1g0b5re" class="staff">
                  <path d="M5770 4211 L9601 4211" stroke-width="13" />
                  <path d="M5770 4391 L9601 4391" stroke-width="13" />
                  <path d="M5770 4571 L9601 4571" stroke-width="13" />
                  <path d="M5770 4751 L9601 4751" stroke-width="13" />
                  <path d="M5770 4931 L9601 4931" stroke-width="13" />
                  <g id="ncigkdf" class="layer">
                     <g id="oaqpptn" class="note">
                        <g class="notehead">
                           <use xlink:href="#E0A4-b1xv9l9e" transform="translate(5952, 4211) scale(0.72, 0.72)" />
                        </g>
                        <g id="h1oes294" class="dots">
                           <ellipse cx="6268" cy="4121" rx="36" ry="36" />
                        </g>
                        <g id="g1lpbvqv" class="stem">
                           <path d="M5961 4239 L5961 4841" stroke-width="18" />
                        </g>
                     </g>
                     <g id="q1jtngpo" class="note">
                        <g class="notehead">
                           <use xlink:href="#E0A4-b1xv9l9e" transform="translate(7133, 4211) scale(0.72, 0.72)" />
                        </g>
                        <g id="iempp51" class="stem">
                           <path d="M7142 4239 L7142 4841" stroke-width="18" />
                           <g id="j1cmjfl4" class="flag">
                              <use xlink:href="#E241-b1xv9l9e" transform="translate(7133, 4841) scale(0.72, 0.72)" />
                           </g>
                        </g>
                     </g>
                     <g id="r1vg6k0z" class="note">
                        <g class="notehead">
                           <use xlink:href="#E0A4-b1xv9l9e" transform="translate(7737, 4211) scale(0.72, 0.72)" />
                        </g>
                        <g id="k115zn6s" class="stem">
                           <path d="M7746 4239 L7746 4841" stroke-width="18" />
                        </g>
                     </g>
                     <g id="sx8vgo0" class="note">
                        <g class="notehead">
                           <use xlink:href="#E0A4-b1xv9l9e" transform="translate(8662, 4211) scale(0.72, 0.72)" />
                        </g>
                        <g id="lcr1krv" class="stem">
                           <path d="M8671 4239 L8671 4841" stroke-width="18" />
                        </g>
                     </g>
                  </g>
               </g>
               <g id="p1715zsd" class="slur">
                  <path d="M6065,4009 C6329,3744 6981,3744 7246,4009 C6959,3803 6351,3803 6065,4009" stroke-width="9" stroke-linecap="round" stroke-linejoin="round" />
               </g>
               <g id="l679ty6" class="barLine">
                  <path d="M9588 4211 L9588 4931" stroke-width="27" />
               </g>
            </g>
         </g>
         <g id="tdh24ri" class="system">
            <g id="t168a6iw" class="measure">
               <g id="f8qi3jv" class="mNum autogenerated">
                  <text y="5561" text-anchor="middle" font-size="0px">
                     <tspan id="g1rvf1sr" class="text">
                        <tspan font-size="324px">7</tspan>
                     </tspan>
                  </text>
               </g>
               <g id="cgccu0z" class="staff">
                  <path d="M0 5804 L3668 5804" stroke-width="13" />
                  <path d="M0 5984 L3668 5984" stroke-width="13" />
                  <path d="M0 6164 L3668 6164" stroke-width="13" />
                  <path d="M0 6344 L3668 6344" stroke-width="13" />
                  <path d="M0 6524 L3668 6524" stroke-width="13" />
                  <g id="mpnaaoh" class="clef">
                     <use xlink:href="#E062-b1xv9l9e" transform="translate(88, 5984) scale(0.72, 0.72)" />
                  </g>
                  <g id="n16dxftg" class="keySig" />
                  <g id="d1a01sg6" class="layer">
                     <g id="e1a83lb7" class="note">
                        <g class="notehead">
                           <use xlink:href="#E0A3-b1xv9l9e" transform="translate(859, 5804) scale(0.72, 0.72)" />
                        </g>
                        <g id="myc0ewd" class="stem">
                           <path d="M868 5829 L868 6434" stroke-width="18" />
                        </g>
                     </g>
                     <g id="f1jrx1q" class="rest">
                        <use xlink:href="#E4E4-b1xv9l9e" transform="translate(2257, 6164) scale(0.72, 0.72)" />
                        <g class="ledgerLines" />
                     </g>
                  </g>
               </g>
               <g id="bolv9g" class="barLine">
                  <path d="M3655 5804 L3655 6524" stroke-width="27" />
               </g>
            </g>
            <g id="p1who2gt" class="systemMilestoneEnd g199n8h5" />
            <g id="q1wvmmws" class="systemMilestoneEnd ov202v4" />
         </g>
         <g id="rqldafs" class="pageMilestoneEnd m4jpuvf" />
         <g id="s86suv8" class="pageMilestoneEnd l1oq63c2" />
      </g>
   </svg>
</svg>
